<?xml version="1.0" encoding="utf-8"?>
<!-- Generator: Adobe Illustrator 16.0.0, SVG Export Plug-In . SVG Version: 6.00 Build 0)  -->
<!DOCTYPE svg PUBLIC "-//W3C//DTD SVG 1.1//EN" "http://www.w3.org/Graphics/SVG/1.1/DTD/svg11.dtd">
<svg version="1.1" id="Capa_1" xmlns="http://www.w3.org/2000/svg" xmlns:xlink="http://www.w3.org/1999/xlink" x="0px" y="0px"
	 width="595.281px" height="841.891px" viewBox="0 0 595.281 841.891" enable-background="new 0 0 595.281 841.891"
	 xml:space="preserve">
<path fill="#1E92D7" d="M143.017,245.853c2.205,0,4.434-0.854,6.118-2.539c5.934-5.934,12.198-11.595,18.606-16.859
	c3.704-3.017,4.245-8.473,1.228-12.156c-3.017-3.684-8.473-4.266-12.177-1.249c-6.847,5.598-13.548,11.654-19.897,18.002
	c-3.394,3.373-3.394,8.867,0,12.24C138.583,245.001,140.788,245.853,143.017,245.853z"/>
<path fill="#1E92D7" d="M520.703,261.257c1.727,2.082,4.203,3.143,6.701,3.143c1.936,0,3.893-0.625,5.494-1.999
	c3.684-3.018,4.223-8.473,1.186-12.157c-11.135-13.51-23.643-26.019-37.195-37.09c-3.746-3.038-9.155-2.477-12.196,1.228
	c-3.039,3.684-2.498,9.136,1.207,12.178C498.578,236.944,510.294,248.643,520.703,261.257z"/>
<path fill="#1E92D7" d="M567.054,347.384c1.146,3.747,4.58,6.119,8.283,6.119c0.834,0,1.687-0.105,2.541-0.374
	c4.58-1.395,7.16-6.244,5.744-10.845c-5.121-16.733-11.926-33.03-20.232-48.497c-2.266-4.182-7.532-5.724-11.735-3.495
	s-5.787,7.493-3.519,11.696C555.898,316.496,562.267,331.75,567.054,347.384z"/>
<path fill="#1E92D7" d="M399.626,180.477c15.631,4.744,30.91,11.051,45.396,18.773c1.288,0.708,2.706,1.061,4.075,1.061
	c3.103,0,6.078-1.664,7.66-4.601c2.248-4.224,0.666-9.47-3.557-11.696c-15.484-8.284-31.824-15.09-48.562-20.127
	c-4.559-1.396-9.405,1.228-10.803,5.766C392.468,174.254,395.05,179.082,399.626,180.477z"/>
<path fill="#1E92D7" d="M204.563,200.23c1.375,0,2.77-0.332,4.081-1.019c14.487-7.723,29.765-14.051,45.396-18.773
	c4.58-1.333,7.183-6.181,5.787-10.803c-1.375-4.559-6.223-7.182-10.782-5.745c-16.733,5.037-33.071,11.759-48.559,20.043
	c-4.224,2.267-5.808,7.514-3.558,11.696C198.465,198.563,201.461,200.23,204.563,200.23z"/>
<path fill="#1E92D7" d="M302.259,170.922c16.008-1.563,32.722-1.563,49.164,0c0.293,0.042,0.562,0.063,0.854,0.063
	c4.414,0,8.182-3.353,8.616-7.828c0.457-4.765-3.018-8.993-7.786-9.47c-17.545-1.685-35.404-1.664-52.511,0
	c-4.766,0.436-8.244,4.705-7.787,9.47C293.271,167.905,297.516,171.257,302.259,170.922z"/>
<path fill="#005B98" d="M593.986,394.129c-0.457-4.765-4.765-7.971-9.472-7.786c-4.764,0.457-8.241,4.744-7.764,9.471
	c0.834,8.263,1.228,16.733,1.228,25.122c0,138.517-112.687,251.199-251.199,251.199c-137.809,0-249.951-111.56-251.095-249.117
	l50.433,50.454c3.394,3.373,8.867,3.373,12.24,0c3.394-3.374,3.394-8.866,0-12.239l-67.898-67.934L2.543,461.232
	c-3.394,3.373-3.394,8.866,0,12.239c1.706,1.705,3.914,2.52,6.118,2.52s4.434-0.813,6.118-2.52l43.875-43.854
	C63.297,573.65,181.6,689.455,326.734,689.455c148.065,0,268.539-120.447,268.539-268.519
	C595.318,411.989,594.882,402.955,593.986,394.129z"/>
</svg>
