<?xml version="1.0" encoding="utf-8"?>
<!-- Generator: Adobe Illustrator 16.0.0, SVG Export Plug-In . SVG Version: 6.00 Build 0)  -->
<!DOCTYPE svg PUBLIC "-//W3C//DTD SVG 1.1//EN" "http://www.w3.org/Graphics/SVG/1.1/DTD/svg11.dtd">
<svg version="1.1" id="Layer_1" xmlns="http://www.w3.org/2000/svg" xmlns:xlink="http://www.w3.org/1999/xlink" x="0px" y="0px"
	 width="512px" height="333.082px" viewBox="0 0 512 333.082" enable-background="new 0 0 512 333.082" xml:space="preserve">
<path fill="#005B8F" d="M340.502,0.002H230.985c-38.265,0-70.694,25.43-81.316,60.277c-0.119-0.02-0.965,3.485-1.084,3.467
	c-2.33,7.729-2.335,9.086-2.587,20.492c-0.003,0.266-0.014,0.529-0.014,0.795c0,9.777,1.703,19.441,4.981,28.578H24.604
	c-13.563,0-24.598,11.035-24.598,24.6V251.82c0,13.549,11.035,24.568,24.598,24.568h29.91v46.693c0,3.779,2.129,7.234,5.503,8.932
	c1.422,0.719,2.962,1.068,4.496,1.068c2.106,0,4.2-0.664,5.956-1.967l73.823-54.727h41.681c5.523,0,10-4.477,10-10
	c0-5.521-4.477-10-10-10H140.99c-2.145,0-4.232,0.689-5.955,1.969L74.514,303.22v-36.832c0-5.521-4.477-10-10-10h-39.91
	c-2.492,0-4.598-2.092-4.598-4.568V138.211c0-2.494,2.105-4.598,4.598-4.598h283.395c2.492,0,4.598,2.104,4.598,4.598V251.82
	c0,2.477-2.104,4.568-4.598,4.568h-32.2c-5.523,0-10,4.479-10,10c0,5.523,4.477,10,10,10h32.2c13.563,0,24.598-11.02,24.598-24.568
	v-81.783h24.691l68.925,54.775c1.803,1.434,4.003,2.17,6.223,2.17c1.446,0,2.9-0.313,4.26-0.953
	c3.439-1.619,5.666-5.051,5.737-8.854l0.941-48.76c17.588-3.464,33.7-12.46,46.072-25.875c14.54-15.765,22.547-36.188,22.547-57.508
	C511.993,38.146,473.848,0,426.964,0h-62.749 M366.5,0.582c-9,0-18,0-27,0C348.5,0.582,357.5,0.582,366.5,0.582z M432.668,149.765
	c-5.091,0.444-9.027,4.657-9.126,9.769l-0.715,37.042L367,152.207c-1.769-1.406-3.962-2.17-6.222-2.17h-28.183v-11.826
	c0-13.563-11.033-24.598-24.598-24.598h-135.34c-4.374-8.881-6.674-18.654-6.674-28.58c0-35.857,29.159-65.031,65.001-65.031
	h195.979c35.857,0,65.029,29.172,65.029,65.031C491.993,118.418,465.935,146.853,432.668,149.765z"/>
<path fill="#1E92D7" d="M230.872,256.39c-5.523,0-10,4.479-10,10c0,5.523,4.477,10,10,10h0.057c5.523,0,9.972-4.477,9.972-10
	S236.395,256.39,230.872,256.39z"/>
</svg>
