<?xml version="1.0" encoding="utf-8"?>
<!-- Generator: Adobe Illustrator 16.0.0, SVG Export Plug-In . SVG Version: 6.00 Build 0)  -->
<!DOCTYPE svg PUBLIC "-//W3C//DTD SVG 1.1//EN" "http://www.w3.org/Graphics/SVG/1.1/DTD/svg11.dtd">
<svg version="1.1" id="Слой_1" xmlns="http://www.w3.org/2000/svg" xmlns:xlink="http://www.w3.org/1999/xlink" x="0px" y="0px"
	 width="511px" height="511px" viewBox="0 0 511 511" enable-background="new 0 0 511 511" xml:space="preserve">
<path fill="#005BA7" d="M133.565,202.742H79.721c-6.854,0-12.433,5.579-12.433,12.437v80.503c0,6.854,5.579,12.436,12.433,12.436
	h53.844c6.858,0,12.437-5.582,12.437-12.436v-80.503C146.001,208.321,140.423,202.742,133.565,202.742z M131.031,293.143H82.259
	v-75.43h48.771V293.143z"/>
<path fill="#005BA7" d="M232.805,202.742h-53.844c-6.858,0-12.437,5.579-12.437,12.437v80.503c0,6.854,5.579,12.436,12.437,12.436
	h53.844c6.857,0,12.437-5.582,12.437-12.436v-80.503C245.241,208.321,239.662,202.742,232.805,202.742z M230.271,293.143h-48.776
	v-75.43h48.776V293.143z"/>
<path fill="#005BA7" d="M332.044,202.742H278.2c-6.857,0-12.437,5.579-12.437,12.437v80.503c0,6.854,5.579,12.436,12.437,12.436
	h53.844c6.858,0,12.437-5.582,12.437-12.436v-80.503C344.48,208.321,338.902,202.742,332.044,202.742z M329.51,293.143h-48.775
	v-75.43h48.775V293.143z"/>
<path fill="#005BA7" d="M431.284,202.742h-53.845c-6.857,0-12.437,5.579-12.437,12.437v80.503c0,6.854,5.579,12.436,12.437,12.436
	h53.845c6.857,0,12.437-5.582,12.437-12.436v-80.503C443.721,208.321,438.142,202.742,431.284,202.742z M428.75,293.143h-48.776
	v-75.43h48.776V293.143z"/>
<path fill="#005BA7" d="M42.762,32.095c-6.41,0-11.626,5.213-11.626,11.622v284.393c0,6.41,5.216,11.623,11.626,11.623h425.481
	c6.409,0,11.625-5.217,11.625-11.623c0-12.654,0-259.621,0-284.393c0-6.409-5.216-11.622-11.625-11.622
	C450.645,32.095,60.403,32.095,42.762,32.095z M464.897,69.108H91.054V47.065h373.843V69.108z M46.107,47.065h29.977v22.043H46.107
	V47.065z M46.107,324.761V84.083h418.791v240.678H46.107z"/>
<path fill="#005BA7" d="M431.927,99.038H272.969c-4.137,0-7.486,3.349-7.486,7.485c0,4.137,3.35,7.485,7.486,7.485h155.777v59.618
	H82.259v-59.618h155.777c4.132,0,7.485-3.349,7.485-7.485c0-4.136-3.353-7.485-7.485-7.485H79.078
	c-6.503,0-11.789,5.291-11.789,11.79v65.98c0,6.503,5.286,11.79,11.789,11.79h352.853c6.499,0,11.79-5.287,11.79-11.79v-65.98
	C443.721,104.325,438.43,99.038,431.927,99.038z"/>
<path fill="#005BA7" d="M474.754,0.96H36.251c-19.988,0-36.25,16.261-36.25,36.25v297.411c0,19.988,16.261,36.249,36.25,36.249
	h165.313v22.063c0,8.702-4.351,16.916-11.361,21.438l-20.343,13.135h-13.333c-9.629,0-17.466,7.836-17.466,17.466v11.173
	c0,9.634,7.836,17.466,17.466,17.466h197.949c9.63,0,17.466-7.832,17.466-17.466v-11.173c0-9.63-7.836-17.466-17.466-17.466h-13.333
	l-20.343-13.135c-7.01-4.522-11.36-12.736-11.36-21.438V370.87h165.313c19.988,0,36.249-16.261,36.249-36.249V209.518
	c0-4.133-3.353-7.485-7.485-7.485c-4.137,0-7.485,3.353-7.485,7.485v125.104c0,11.73-9.548,21.274-21.278,21.274
	c-11.424,0-426.62,0-438.502,0c-11.731,0-21.279-9.544-21.279-21.274V37.21c0-11.735,9.548-21.279,21.279-21.279h438.502
	c11.73,0,21.278,9.544,21.278,21.279v137.376c0,4.132,3.349,7.485,7.485,7.485c4.133,0,7.485-3.353,7.485-7.485V37.21
	C511.003,17.222,494.742,0.96,474.754,0.96z M356.972,444.972v11.173c0,1.377-1.118,2.495-2.495,2.495H156.528
	c-1.372,0-2.491-1.118-2.491-2.495v-11.173c0-1.377,1.119-2.495,2.491-2.495h197.949
	C355.85,442.477,356.972,443.599,356.972,444.972z M294.469,370.87v22.063c0,13.356,6.039,26.155,19.072,34.573H197.463
	c13.088-8.453,19.072-21.299,19.072-34.573V370.87H294.469z"/>
</svg>
