<?xml version="1.0" encoding="utf-8"?>
<!-- Generator: Adobe Illustrator 16.0.0, SVG Export Plug-In . SVG Version: 6.00 Build 0)  -->
<!DOCTYPE svg PUBLIC "-//W3C//DTD SVG 1.1//EN" "http://www.w3.org/Graphics/SVG/1.1/DTD/svg11.dtd">
<svg version="1.1" id="Слой_1" xmlns="http://www.w3.org/2000/svg" xmlns:xlink="http://www.w3.org/1999/xlink" x="0px" y="0px"
	 width="480px" height="480px" viewBox="0 0 480 480" enable-background="new 0 0 480 480" xml:space="preserve">
<path fill="#005B9B" d="M403.98,287.602L302.16,185.777c-3.176-3.004-8.141-3.004-11.313,0l-45.258,45.254
	c-3.121,3.125-3.121,8.188,0,11.313l5.656,5.656l-15.281,15.281l-12.254,2.438l-23.375-23.375c-1.5-1.5-3.535-2.344-5.656-2.344
	h-30.625l-14.633-14.625c3.125-3.121,3.125-8.188,0-11.313l-45.246-45.262c-1.504-1.504-3.539-2.348-5.66-2.348
	c-2.125,0-4.16,0.844-5.66,2.348L2.344,259.313c-3.125,3.125-3.125,8.188,0,11.313l45.254,45.254c3.125,3.125,8.188,3.125,11.313,0
	l51.945,51.945c-3.492,7.211-3.121,15.691,0.98,22.57c4.098,6.879,11.383,11.238,19.387,11.598
	c0.512,12.289,10.367,22.125,22.656,22.617c0.523,12.254,10.34,22.066,22.59,22.59c0.504,9.43,6.5,17.68,15.313,21.074
	c8.809,3.391,18.793,1.293,25.488-5.363l8.504,8.504c6.676,6.762,16.719,8.93,25.59,5.527c8.867-3.406,14.879-11.738,15.316-21.23
	c12.273-0.504,22.105-10.34,22.605-22.613c12.281-0.52,22.121-10.355,22.641-22.633c9.457-0.453,17.754-6.445,21.156-15.277
	c3.402-8.836,1.27-18.844-5.438-25.523l-8.461-8.465l22.605-22.656l5.656,5.664c3.125,3.125,8.188,3.125,11.313,0l45.258-45.254
	c3.121-3.125,3.121-8.188,0-11.313L403.98,287.602z M254.078,318.711c3.125,3.125,3.125,8.188,0,11.313
	c-3.16,3.035-8.152,3.035-11.313,0l-33.941-33.934c-3.125-3.125-8.191-3.125-11.313,0c-9.375,9.379-24.578,9.379-33.953,0
	l-11.281,11.309c2.906,2.852,6.23,5.242,9.855,7.09l-40.965,40.992l-28.313-28.281L164.055,256h27.313L254.078,318.711z
	 M53.277,298.91l-33.969-33.941l79.203-79.199l33.941,33.941L53.277,298.91z M138.133,236.688L149.43,248l-67.895,67.879
	l-11.313-11.313L138.133,236.688z M200.277,453.922c-2.098,0.008-4.113-0.816-5.598-2.297c-3.074-3.086-3.113-8.066-0.09-11.199
	l0.09-0.09l16.438-16.441l6.168-6.152l-11.293-11.344l-6.188,6.188l-16.504,16.438l-0.07,0.09c-3.188,2.84-8.039,2.68-11.031-0.367
	c-2.992-3.043-3.066-7.898-0.168-11.035l22.648-22.633l-11.313-11.309l-22.625,22.629c-3.125,3.129-8.191,3.129-11.316,0.004
	c-3.125-3.121-3.129-8.188-0.004-11.313l22.633-22.625l-11.313-11.313l-22.641,22.625c-3.16,3.023-8.141,3.023-11.305,0
	c-3.121-3.125-3.121-8.188,0-11.313l53.48-53.504c7.93,0.117,15.715-2.137,22.352-6.473l28.848,28.848
	c9.5,9.066,24.445,9.066,33.945,0c9.371-9.371,9.371-24.563,0-33.938l-28.078-28.078l70.527,70.52l-2.402,2.398
	c-6.969-1.93-14.438-0.574-20.285,3.676c-5.852,4.254-9.441,10.941-9.754,18.164c-12.355,0.523-22.223,10.48-22.633,22.844
	c-12.277,0.305-22.188,10.125-22.605,22.398c-7.215,0.309-13.895,3.887-18.152,9.719c-4.254,5.832-5.621,13.285-3.711,20.25
	l-2.402,2.398C204.414,453.152,202.383,453.957,200.277,453.922z M248.422,460.137c-3.16,3.027-8.148,3.027-11.313,0l-11.32-11.336
	c-2.797-3.168-2.648-7.965,0.336-10.953c2.988-2.988,7.785-3.141,10.953-0.344l11.344,11.297c1.508,1.492,2.352,3.527,2.344,5.648
	C250.773,456.582,249.93,458.629,248.422,460.137z M271.047,437.504c-3.125,3.125-8.188,3.125-11.313,0l-11.313-11.313
	c-1.5-1.5-2.348-3.535-2.348-5.66c0-2.121,0.848-4.16,2.348-5.66c1.492-1.508,3.527-2.352,5.648-2.344
	c2.121,0,4.156,0.844,5.656,2.344l11.313,11.313c1.504,1.5,2.348,3.535,2.348,5.66C273.391,433.965,272.547,436.004,271.047,437.504
	z M293.664,414.871c-3.164,3.023-8.145,3.023-11.305,0l-11.313-11.313c-3.031-3.137-2.988-8.129,0.098-11.215
	s8.074-3.129,11.215-0.098l11.313,11.313c1.5,1.5,2.344,3.535,2.344,5.656C296.023,411.34,295.176,413.379,293.664,414.871z
	 M316.301,392.246c-1.5,1.504-3.535,2.348-5.66,2.348c-2.121,0-4.156-0.844-5.66-2.348l-11.309-11.309
	c-3.133-3.129-3.137-8.199-0.008-11.328c3.125-3.133,8.195-3.137,11.328-0.008l11.285,11.336c3.125,3.121,3.125,8.188,0,11.309
	H316.301z M319.133,338.504l-67.879-67.879l11.305-11.313l67.887,67.887L319.133,338.504z M353.078,327.199l-90.52-90.512
	l33.945-33.945l90.512,90.516L353.078,327.199z"/>
<path fill="#005B9B" d="M50.68,456V328h-16v128c0,13.254,10.742,24,24,24h104v-16h-104C54.262,464,50.68,460.418,50.68,456z"/>
<path fill="#005B9B" d="M354.68,456c0,4.418-3.582,8-8,8h-64v16h64c13.254,0,24-10.746,24-24v-96h-16V456z"/>
<path fill="#005B9B" d="M50.68,24c0-4.418,3.582-8,8-8h224v56c0,13.254,10.742,24,24,24h48v128h16V88.238
	c0-1.973-0.73-3.875-2.051-5.344l-72-80.238C295.113,0.965,292.949,0,290.68,0h-232c-13.258,0-24,10.746-24,24v168h16V24z
	 M298.68,72V28.922L344.535,80H306.68C302.262,80,298.68,76.418,298.68,72z"/>
<path fill="#005B9B" d="M82.68,48h16v16h-16V48z"/>
<path fill="#005B9B" d="M114.68,48h64v16h-64V48z"/>
<path fill="#005B9B" d="M82.68,80h96v16h-96V80z"/>
<path fill="#005B9B" d="M82.68,128h32v16h-32V128z"/>
<path fill="#005B9B" d="M130.68,128h192v16h-192V128z"/>
<path fill="#005B9B" d="M146.68,176h120v16h-120V176z"/>
</svg>
