<?xml version="1.0" encoding="utf-8"?>
<!-- Generator: Adobe Illustrator 16.0.0, SVG Export Plug-In . SVG Version: 6.00 Build 0)  -->
<!DOCTYPE svg PUBLIC "-//W3C//DTD SVG 1.1//EN" "http://www.w3.org/Graphics/SVG/1.1/DTD/svg11.dtd">
<svg version="1.1" id="Capa_1" xmlns="http://www.w3.org/2000/svg" xmlns:xlink="http://www.w3.org/1999/xlink" x="0px" y="0px"
	 width="595.281px" height="841.891px" viewBox="0 0 595.281 841.891" enable-background="new 0 0 595.281 841.891"
	 xml:space="preserve">
<g>
	<g>
		<path fill="#1E92D7" d="M580.771,231.411H443.537c15.059-22.115,16.512-51.973,1.313-75.972
			c-20.395-32.208-63.204-41.823-95.411-21.429c-8.15,5.162-21.755,17.231-45.685,62.239c-2.139,4.034-4.186,7.987-6.115,11.79
			c-1.93-3.802-3.976-7.755-6.116-11.79c-23.929-45.009-37.532-57.077-45.683-62.239c-32.207-20.394-75.018-10.778-95.412,21.429
			c-9.883,15.604-13.093,34.125-9.045,52.147c1.941,8.662,5.453,16.709,10.313,23.824H14.509v168.836h20.394v318.337h525.474
			V400.248h20.396L580.771,231.411L580.771,231.411z M368.089,163.486c5.558-3.523,11.859-5.325,18.277-5.325
			c2.512,0,5.059,0.279,7.567,0.837c8.931,2.011,16.548,7.371,21.453,15.104c10.104,15.964,5.336,37.183-10.627,47.288
			c-9.604,6.092-44.811,9.487-79.865,10.01C340.359,199.936,358.486,169.567,368.089,163.486z M179.893,174.1
			c4.907-7.731,12.523-13.091,21.452-15.104c2.512-0.558,5.058-0.837,7.569-0.837c6.418,0,12.72,1.802,18.278,5.325
			c9.604,6.081,27.73,36.451,43.195,67.915c-17.522-0.268-35.09-1.244-49.474-2.918c-14.384-1.674-25.591-4.046-30.393-7.092
			c-7.731-4.895-13.104-12.51-15.104-21.44C173.404,191.018,174.997,181.833,179.893,174.1z M227.063,683.704H69.784V400.248h157.28
			L227.063,683.704L227.063,683.704z M227.063,365.367H49.391v-99.075h177.674L227.063,365.367L227.063,365.367z M333.335,683.704
			h-71.39V266.292h71.39V683.704L333.335,683.704z M525.496,683.704L525.496,683.704h-157.28V400.248h157.279L525.496,683.704
			L525.496,683.704z M545.89,365.367H368.216v-99.075H545.89V365.367z"/>
	</g>
</g>
</svg>
