<?xml version="1.0" encoding="utf-8"?>
<!-- Generator: Adobe Illustrator 16.0.0, SVG Export Plug-In . SVG Version: 6.00 Build 0)  -->
<!DOCTYPE svg PUBLIC "-//W3C//DTD SVG 1.1//EN" "http://www.w3.org/Graphics/SVG/1.1/DTD/svg11.dtd">
<svg version="1.1" id="Capa_1" xmlns="http://www.w3.org/2000/svg" xmlns:xlink="http://www.w3.org/1999/xlink" x="0px" y="0px"
	 width="496.5px" height="496.5px" viewBox="15.5 15.5 496.5 496.5" enable-background="new 15.5 15.5 496.5 496.5"
	 xml:space="preserve">
<circle fill="#135B86" cx="262.743" cy="263.788" r="246.273"/>
<path fill="#FFFFFF" d="M263.75,512C126.867,512,15.5,400.633,15.5,263.75S126.867,15.5,263.75,15.5S512,126.867,512,263.75
	S400.633,512,263.75,512z M263.75,46.532c-119.776,0-217.218,97.442-217.218,217.218c0,119.776,97.442,217.22,217.218,217.22
	c119.776,0,217.22-97.443,217.22-217.22C480.97,143.974,383.526,46.532,263.75,46.532z"/>
<path fill="#FFFFFF" d="M258,208l112,112h48L258,160L98,320h48L258,208z"/>
</svg>
