<?xml version="1.0" encoding="utf-8"?>
<!-- Generator: Adobe Illustrator 16.0.0, SVG Export Plug-In . SVG Version: 6.00 Build 0)  -->
<!DOCTYPE svg PUBLIC "-//W3C//DTD SVG 1.1//EN" "http://www.w3.org/Graphics/SVG/1.1/DTD/svg11.dtd">
<svg version="1.1" id="Слой_1" xmlns="http://www.w3.org/2000/svg" xmlns:xlink="http://www.w3.org/1999/xlink" x="0px" y="0px"
	 width="512px" height="512px" viewBox="0 0 512 512" enable-background="new 0 0 512 512" xml:space="preserve">
<path fill="#005B8C" d="M90.051,395.949c-7.168,0-14.059,1.789-20.172,5.148C37.676,359.816,20,308.535,20,256
	C20,125.867,125.867,20,256,20c15.82,0,31.633,1.574,47,4.68c5.406,1.094,10.688-2.406,11.781-7.82
	c1.093-5.414-2.406-10.688-7.82-11.785C290.293,1.707,273.148,0,256,0C187.621,0,123.332,26.629,74.98,74.98S0,187.621,0,256
	c0,57.52,19.531,113.652,55.09,158.652c-4.578,6.84-7.039,14.879-7.039,23.297c0,11.219,4.371,21.766,12.305,29.694
	c7.93,7.935,18.477,12.306,29.695,12.306c11.218,0,21.766-4.371,29.699-12.306c7.934-7.93,12.301-18.479,12.301-29.698
	c0-11.215-4.367-21.766-12.301-29.695C111.816,400.316,101.27,395.949,90.051,395.949z M105.605,453.504
	c-4.152,4.156-9.68,6.445-15.555,6.445s-11.398-2.289-15.555-6.445c-4.157-4.156-6.445-9.68-6.445-15.555
	c0-5.879,2.289-11.402,6.445-15.56c4.152-4.155,9.68-6.44,15.555-6.44s11.398,2.289,15.555,6.44
	c4.156,4.156,6.445,9.681,6.445,15.56C112.051,443.824,109.762,449.348,105.605,453.504z"/>
<path fill="#1E92D7" d="M456.902,97.336c10.871-16.309,9.125-38.605-5.254-52.984c-7.935-7.93-18.48-12.301-29.699-12.301
	s-21.767,4.371-29.699,12.301c-7.934,7.934-12.301,18.48-12.301,29.699c0,11.219,4.367,21.766,12.301,29.699
	s18.48,12.301,29.699,12.301c7.168,0,14.059-1.789,20.172-5.148C474.324,152.188,492,203.465,492,256c0,130.133-105.867,236-236,236
	c-15.664,0-31.328-1.543-46.551-4.59c-5.414-1.082-10.684,2.43-11.77,7.844c-1.082,5.418,2.43,10.684,7.844,11.771
	C222.035,510.324,239.02,512,256,512c68.379,0,132.668-26.629,181.02-74.98C485.372,388.669,512,324.379,512,256
	C512,198.477,492.465,142.34,456.902,97.336z M406.395,89.609c-4.155-4.156-6.444-9.68-6.444-15.559
	c0-5.875,2.289-11.398,6.444-15.555c4.152-4.156,9.681-6.445,15.556-6.445s11.401,2.289,15.559,6.445
	c8.574,8.578,8.574,22.535,0,31.113c-4.156,4.152-9.684,6.441-15.559,6.441C416.07,96.051,410.547,93.762,406.395,89.609z"/>
<path fill="#005B8C" d="M214.734,428c0,5.523,4.48,10,10,10h62.527c5.523,0,10-4.477,10-10v-19.387
	c13.148-3.539,25.72-8.75,37.531-15.555l13.688,13.688c1.875,1.875,4.418,2.93,7.073,2.93c2.648,0,5.195-1.055,7.07-2.934
	l44.195-44.227c3.901-3.906,3.901-10.238,0-14.142l-13.672-13.672c6.805-11.813,12.016-24.384,15.555-37.531h19.313
	c5.523,0,10-4.478,10-10v-62.527c0-5.523-4.477-10-10-10h-19.315c-3.539-13.145-8.746-25.715-15.551-37.527l13.598-13.598
	c1.875-1.875,2.93-4.422,2.93-7.074c-0.004-2.652-1.059-5.199-2.934-7.074l-44.23-44.195c-3.901-3.902-10.233-3.902-14.141,0.004
	l-13.578,13.582c-11.813-6.805-24.383-12.016-37.531-15.555V84c0-5.523-4.477-10-10-10h-62.527c-5.52,0-10,4.477-10,10v19.211
	c-13.145,3.535-25.715,8.746-37.527,15.551l-13.582-13.582c-3.902-3.902-10.234-3.906-14.141-0.004l-44.227,44.199
	c-1.879,1.875-2.934,4.418-2.934,7.07c0,2.652,1.055,5.199,2.93,7.074l13.598,13.598c-6.805,11.813-12.016,24.379-15.555,37.527
	H84.02c-5.523,0-10,4.477-10,9.996l-0.035,62.527c-0.004,2.651,1.051,5.199,2.926,7.074s4.418,2.93,7.074,2.93h19.313
	c3.539,13.147,8.75,25.72,15.555,37.531l-13.672,13.672c-3.902,3.901-3.906,10.233,0,14.142l44.195,44.227
	c1.875,1.875,4.418,2.934,7.07,2.934h0.004c2.652,0,5.195-1.055,7.07-2.93l13.684-13.688c11.816,6.805,24.387,12.016,37.531,15.555
	L214.734,428L214.734,428z M181.125,372.027c-3.957-2.56-9.164-2.004-12.5,1.328l-12.176,12.176l-30.059-30.082l12.164-12.168
	c3.332-3.332,3.887-8.539,1.328-12.496c-9.066-14.031-15.441-29.41-18.941-45.715c-0.992-4.605-5.063-7.898-9.777-7.898H93.988
	l0.023-42.527h17.152c4.715,0,8.785-3.289,9.777-7.898c3.5-16.301,9.875-31.68,18.941-45.711c2.559-3.957,2.004-9.164-1.328-12.496
	l-12.086-12.09l30.082-30.059l12.074,12.078c3.336,3.332,8.539,3.883,12.5,1.328c14.027-9.066,29.406-15.441,45.711-18.941
	c4.605-0.992,7.898-5.066,7.898-9.777V94h42.527v17.074c0,4.715,3.289,8.789,7.898,9.777c16.301,3.504,31.684,9.875,45.711,18.941
	c3.957,2.559,9.164,2.008,12.496-1.328l12.078-12.074l30.082,30.059l-12.086,12.086c-3.337,3.336-3.888,8.543-1.328,12.5
	c9.065,14.031,15.438,29.41,18.94,45.711c0.988,4.609,5.063,7.898,9.777,7.898h17.184v42.527h-17.184
	c-4.715,0-8.785,3.293-9.777,7.897c-3.5,16.302-9.875,31.685-18.94,45.711c-2.56,3.962-2.004,9.169,1.328,12.5l12.163,12.164
	l-30.059,30.082l-12.176-12.172c-3.336-3.336-8.543-3.887-12.5-1.328c-14.031,9.066-29.41,15.438-45.711,18.941
	c-4.609,0.992-7.898,5.063-7.898,9.777V418h-42.527v-17.254c0-4.711-3.293-8.785-7.898-9.777
	C210.535,387.469,195.156,381.094,181.125,372.027z"/>
<path fill="#005B8C" d="M338.629,256c0-45.563-37.066-82.629-82.629-82.629c-45.563,0-82.629,37.067-82.629,82.629
	c0,45.563,37.066,82.629,82.629,82.629C301.563,338.629,338.629,301.563,338.629,256z M193.371,256
	c0-34.535,28.094-62.629,62.629-62.629s62.629,28.098,62.629,62.629S290.535,318.629,256,318.629S193.371,290.535,193.371,256z"/>
<path fill="#005B8C" d="M348.078,37.82c2.633,0,5.211-1.07,7.07-2.93c1.858-1.871,2.93-4.449,2.93-7.082
	c0-2.617-1.066-5.199-2.93-7.07c-1.859-1.859-4.438-2.93-7.07-2.93c-2.641,0-5.207,1.07-7.066,2.93
	c-1.862,1.871-2.934,4.441-2.934,7.07c0,2.641,1.07,5.211,2.934,7.082C342.871,36.75,345.438,37.82,348.078,37.82z"/>
<path fill="#00BFF6" d="M164.359,474.359c-2.629,0-5.211,1.069-7.07,2.93s-2.93,4.441-2.93,7.07c0,2.641,1.07,5.211,2.93,7.069
	c1.86,1.859,4.441,2.931,7.07,2.931s5.211-1.07,7.07-2.931c1.859-1.859,2.93-4.44,2.93-7.069s-1.07-5.211-2.93-7.07
	C169.569,475.43,166.988,474.359,164.359,474.359z"/>
</svg>
