<?xml version="1.0" encoding="utf-8"?>
<!-- Generator: Adobe Illustrator 16.0.0, SVG Export Plug-In . SVG Version: 6.00 Build 0)  -->
<!DOCTYPE svg PUBLIC "-//W3C//DTD SVG 1.1//EN" "http://www.w3.org/Graphics/SVG/1.1/DTD/svg11.dtd">
<svg version="1.1" id="Capa_1" xmlns="http://www.w3.org/2000/svg" xmlns:xlink="http://www.w3.org/1999/xlink" x="0px" y="0px"
	 width="512px" height="512px" viewBox="0 0 512 512" enable-background="new 0 0 512 512" xml:space="preserve">
<path fill="#1E92D7" d="M508.596,468.52c-7.021-9.446-13.188-19.755-17.149-26.787c9.776-4.279,16.629-14.045,16.629-25.381
	c0-15.271-12.424-27.694-27.694-27.694h-43.854c-4.14,0-7.492,3.354-7.492,7.491c0,4.139,3.354,7.492,7.492,7.492h43.854
	c7.008,0,12.709,5.701,12.709,12.709c0,7.01-5.701,12.709-12.709,12.709H246.999c-7.008,0-12.709-5.7-12.709-12.709
	c0-7.008,5.701-12.709,12.709-12.709h155.223c4.14,0,7.492-3.354,7.492-7.492s-3.354-7.491-7.492-7.491H246.999
	c-15.27,0-27.694,12.424-27.694,27.694c0,11.339,6.851,21.102,16.629,25.381c-3.963,7.032-10.129,17.341-17.151,26.79
	c-3.891,5.233-4.49,12.102-1.566,17.919c2.913,5.794,8.755,9.393,15.246,9.393h262.455c6.491,0,12.334-3.599,15.246-9.394
	C513.088,480.622,512.488,473.756,508.596,468.52z M496.775,479.71c-0.263,0.519-0.798,1.139-1.859,1.139H232.462
	c-1.063,0-1.597-0.617-1.858-1.139c-0.27-0.537-0.454-1.364,0.205-2.25c9.508-12.793,17.341-26.673,20.969-33.415h223.825
	c3.626,6.742,11.46,20.621,20.97,33.415C497.229,478.346,497.045,479.172,496.775,479.71L496.775,479.71z"/>
<path fill="#005B98" d="M471.619,197.808c-5.188-5.186-12.08-8.042-19.413-8.042c-4.412,0-8.662,1.041-12.479,2.993L303.047,56.081
	c5.25-10.312,3.573-23.272-5.041-31.886c-10.704-10.704-28.122-10.703-38.828,0l-81.793,81.793
	c-10.704,10.705-10.704,28.123,0.001,38.827c5.353,5.353,12.382,8.029,19.414,8.028c4.284-0.001,8.567-1,12.472-2.988l48.914,48.913
	L127.27,329.682c-2.926,2.926-2.926,7.67,0,10.596c2.927,2.927,7.67,2.927,10.596,0l20.253-20.254l17.67,17.67L77.604,435.88
	c-1.896-3.679-4.378-7.132-7.458-10.212c-3.044-3.044-6.486-5.543-10.202-7.467l53.195-53.195c2.926-2.926,2.926-7.67,0-10.595
	c-2.926-2.927-7.669-2.927-10.596,0l-59.278,59.278c-0.724-0.039-1.451-0.061-2.182-0.061c-10.979,0-21.3,4.275-29.064,12.039
	c-16.025,16.025-16.025,42.101,0,58.127c7.763,7.763,18.085,12.039,29.064,12.039s21.3-4.275,29.064-12.039h0.001
	c8.561-8.562,12.545-19.992,11.958-31.225l214.938-214.939l48.912,48.913c-5.249,10.312-3.573,23.271,5.041,31.885h0.001
	c5.352,5.354,12.383,8.028,19.413,8.028c7.031,0,14.062-2.676,19.415-8.028l81.791-81.792c5.186-5.186,8.042-12.081,8.042-19.414
	C479.66,209.889,476.804,202.994,471.619,197.808z M59.552,473.199c-4.933,4.933-11.493,7.648-18.469,7.648
	s-13.535-2.717-18.467-7.648c-10.184-10.185-10.184-26.753,0-36.938c4.932-4.933,11.491-7.648,18.467-7.648
	s13.536,2.717,18.468,7.648C69.735,446.446,69.735,463.015,59.552,473.199z M205.607,134.23c-4.864,4.852-12.768,4.849-17.625-0.009
	h-0.001c-4.862-4.862-4.862-12.774,0-17.637l81.792-81.793c2.432-2.431,5.625-3.647,8.817-3.647c3.193,0,6.388,1.216,8.818,3.647
	c4.858,4.859,4.86,12.762,0.01,17.625L205.607,134.23z M250.945,170.34l-30.128-30.128L293.4,67.628l30.129,30.128L250.945,170.34z
	 M186.385,327.098l-17.669-17.67l54.761-54.76l17.669,17.67L186.385,327.098z M251.741,261.742l-17.67-17.67l34.707-34.708
	l17.672,17.67L251.741,261.742z M261.541,180.936l72.584-72.585l53.337,53.337l-72.584,72.585L261.541,180.936z M325.474,244.869
	l72.584-72.585l30.128,30.128l-72.585,72.585L325.474,244.869z M461.022,226.04l-81.791,81.792c-4.864,4.863-12.774,4.863-17.64,0
	h0.001c-4.86-4.862-4.86-12.773,0-17.637l81.793-81.792c2.355-2.356,5.487-3.653,8.818-3.653c3.33,0,6.462,1.297,8.818,3.653
	c2.354,2.355,3.651,5.487,3.651,8.818C464.676,220.553,463.378,223.685,461.022,226.04L461.022,226.04z"/>
</svg>
