<?xml version="1.0" encoding="utf-8"?>
<!-- Generator: Adobe Illustrator 16.0.0, SVG Export Plug-In . SVG Version: 6.00 Build 0)  -->
<!DOCTYPE svg PUBLIC "-//W3C//DTD SVG 1.1//EN" "http://www.w3.org/Graphics/SVG/1.1/DTD/svg11.dtd">
<svg version="1.1" id="Слой_1" xmlns="http://www.w3.org/2000/svg" xmlns:xlink="http://www.w3.org/1999/xlink" x="0px" y="0px"
	 width="512px" height="512px" viewBox="0 0 512 512" enable-background="new 0 0 512 512" xml:space="preserve">
<path fill="#005B98" d="M476,48H36C20.543,48.018,8.018,60.543,8,76v360c0.018,15.457,12.543,27.982,28,28h440
	c15.457-0.018,27.982-12.543,28-28V76C503.982,60.543,491.457,48.018,476,48z M36,64h440c6.624,0.007,11.993,5.375,12,12v20H24V76
	C24.007,69.375,29.375,64.007,36,64z M476,448H36c-6.625-0.007-11.993-5.376-12-12V112h464v324
	C487.993,442.624,482.624,447.993,476,448z"/>
<path fill="#005B98" d="M40,88h8c4.418,0,8-3.582,8-8s-3.582-8-8-8h-8c-4.418,0-8,3.582-8,8S35.582,88,40,88z"/>
<path fill="#005B98" d="M72,88h8c4.418,0,8-3.582,8-8s-3.582-8-8-8h-8c-4.418,0-8,3.582-8,8S67.582,88,72,88z"/>
<path fill="#005B98" d="M104,88h8c4.418,0,8-3.582,8-8s-3.582-8-8-8h-8c-4.418,0-8,3.582-8,8S99.582,88,104,88z"/>
<path fill="#1E92D7" d="M464,128H240c-4.418,0-8,3.582-8,8v288c0,4.418,3.582,8,8,8h224c4.418,0,8-3.582,8-8V136
	C472,131.582,468.418,128,464,128z M456,416H248V144h208V416z"/>
<path fill="#005B98" d="M208,128H48c-4.418,0-8,3.582-8,8v72c0,4.418,3.582,8,8,8h160c4.418,0,8-3.582,8-8v-72
	C216,131.582,212.418,128,208,128z M200,200H56v-56h144V200z"/>
<path fill="#005B98" d="M208,232H48c-4.418,0-8,3.582-8,8v184c0,4.418,3.582,8,8,8h160c4.418,0,8-3.582,8-8V240
	C216,235.582,212.418,232,208,232z M200,416H56V248h144V416z"/>
</svg>
