<?xml version="1.0" encoding="utf-8"?>
<!-- Generator: Adobe Illustrator 16.0.0, SVG Export Plug-In . SVG Version: 6.00 Build 0)  -->
<!DOCTYPE svg PUBLIC "-//W3C//DTD SVG 1.1//EN" "http://www.w3.org/Graphics/SVG/1.1/DTD/svg11.dtd">
<svg version="1.1" id="Capa_1" xmlns="http://www.w3.org/2000/svg" xmlns:xlink="http://www.w3.org/1999/xlink" x="0px" y="0px"
	 width="595.281px" height="841.891px" viewBox="0 0 595.281 841.891" enable-background="new 0 0 595.281 841.891"
	 xml:space="preserve">
<g>
	<g>
		<path fill="#1E92D7" d="M397.019,516.614c63.347-99.399,55.384-86.998,57.207-89.59c23.063-32.529,35.253-70.813,35.253-110.718
			c0-105.825-85.875-193.001-191.838-193.001c-105.618,0-191.838,87.004-191.838,193.001c0,39.879,12.445,79.167,36.263,112.133
			l56.194,88.176c-60.081,9.231-162.216,36.747-162.216,97.331c0,22.085,14.415,53.558,83.085,78.083
			c47.951,17.124,111.347,26.556,178.512,26.556c125.596,0,261.598-35.429,261.598-104.639
			C559.238,553.352,457.222,525.867,397.019,516.614z M171.2,409.254c-0.192-0.3-0.392-0.593-0.601-0.881
			c-19.82-27.267-29.917-59.581-29.917-92.067c0-87.22,70.231-158.122,156.958-158.122c86.547,0,156.958,70.933,156.958,158.122
			c0,32.538-9.907,63.756-28.653,90.305c-1.683,2.216,7.084-11.401-128.305,201.044L171.2,409.254z M297.64,683.705
			c-137.187,0-226.718-40.324-226.718-69.759c0-19.784,46.004-52.313,147.946-64.994l64.065,100.526
			c3.202,5.024,8.748,8.066,14.707,8.066c5.958,0,11.504-3.043,14.706-8.066l64.064-100.526
			c101.942,12.681,147.949,45.21,147.949,64.994C524.359,643.131,435.632,683.705,297.64,683.705z"/>
	</g>
</g>
<g>
	<g>
		<path fill="#1E92D7" d="M297.64,229.106c-48.082,0-87.199,39.118-87.199,87.2s39.118,87.199,87.199,87.199
			c48.082,0,87.199-39.118,87.199-87.199C384.839,268.224,345.722,229.106,297.64,229.106z M297.64,368.625
			c-28.849,0-52.319-23.471-52.319-52.319c0-28.849,23.47-52.32,52.319-52.32c28.85,0,52.32,23.471,52.32,52.32
			C349.96,345.155,326.49,368.625,297.64,368.625z"/>
	</g>
</g>
</svg>
