<?xml version="1.0" encoding="utf-8"?>
<!-- Generator: Adobe Illustrator 16.0.0, SVG Export Plug-In . SVG Version: 6.00 Build 0)  -->
<!DOCTYPE svg PUBLIC "-//W3C//DTD SVG 1.1//EN" "http://www.w3.org/Graphics/SVG/1.1/DTD/svg11.dtd">
<svg version="1.1" id="Layer_1" xmlns="http://www.w3.org/2000/svg" xmlns:xlink="http://www.w3.org/1999/xlink" x="0px" y="0px"
	 width="512px" height="512px" viewBox="0 0 512 512" enable-background="new 0 0 512 512" xml:space="preserve">
<path fill="#005B8F" d="M511.993,111.507C511.993,50.021,461.973,0,400.489,0c-56.381,0-103.116,42.066-110.485,96.461H42.292
	c-23.316,0-42.285,18.97-42.285,42.286v89.205c0,5.522,4.477,10,10,10s10-4.478,10-10v-89.205c0-12.289,9.997-22.286,22.285-22.286
	h246.81c2.603,59.195,51.564,106.553,111.389,106.553c13.418,0,26.29-2.383,38.215-6.747v179.692
	c0,12.289-9.997,22.286-22.285,22.286H297.768c-2.783,0-5.438,1.159-7.332,3.198l-61.094,65.854l-61.094-65.854
	c-1.892-2.039-4.549-3.198-7.331-3.198H42.292c-12.288,0-22.285-9.997-22.285-22.286v-78.206c0-5.522-4.477-10-10-10
	s-10,4.478-10,10v78.206c0,23.316,18.969,42.286,42.285,42.286h114.261l65.458,70.557c1.892,2.04,4.549,3.199,7.331,3.199
	c2.782,0,5.439-1.159,7.331-3.199l65.458-70.557H416.42c23.316,0,42.285-18.97,42.285-42.286V206.573
	C490.646,186.94,511.993,151.671,511.993,111.507z M400.489,203.014c-50.455,0-91.504-41.05-91.504-91.507S350.034,20,400.489,20
	s91.504,41.05,91.504,91.507S450.944,203.014,400.489,203.014z"/>
<path fill="#005B8F" d="M442.837,101.507h-32.348V69.13c0-5.522-4.479-10-10-10c-5.522,0-10,4.478-10,10v32.377h-32.376
	c-5.522,0-10,4.478-10,10s4.478,10,10,10h32.376v32.349c0,5.522,4.478,10,10,10c5.521,0,10-4.478,10-10v-32.349h32.348
	c5.522,0,10-4.478,10-10S448.359,101.507,442.837,101.507z"/>
<path fill="#1E92D7" d="M128.382,332.805v41.103c0,5.521,4.477,10,10,10h181.919c5.522,0,10-4.479,10-10v-41.103
	c0-29.772-18.61-56.218-45.314-67.127c7.078-10.606,11.217-23.336,11.217-37.017c0-36.883-29.994-66.89-66.861-66.89
	c-36.867,0-66.86,30.007-66.86,66.89c0,13.682,4.138,26.412,11.217,37.019C146.995,276.591,128.382,303.034,128.382,332.805
	L128.382,332.805z M229.341,181.771c25.839,0,46.861,21.034,46.861,46.89c0,25.84-21.021,46.862-46.861,46.862
	c-25.839,0-46.86-21.022-46.86-46.862C182.481,202.805,203.502,181.771,229.341,181.771z M188.792,281.773
	c11.257,8.613,25.312,13.75,40.55,13.75c15.238,0,29.293-5.135,40.551-13.75c23.312,5.526,40.409,26.75,40.409,51.031v31.102
	h-161.92v-31.102C148.382,308.525,165.481,287.304,188.792,281.773z"/>
<path fill="#005B8F" d="M10.007,282.852c5.523,0,10-4.478,10-10v-0.057c0-5.521-4.477-9.972-10-9.972s-10,4.506-10,10.028
	C0.007,278.373,4.484,282.852,10.007,282.852L10.007,282.852z"/>
</svg>
