<?xml version="1.0" encoding="utf-8"?>
<!-- Generator: Adobe Illustrator 16.0.0, SVG Export Plug-In . SVG Version: 6.00 Build 0)  -->
<!DOCTYPE svg PUBLIC "-//W3C//DTD SVG 1.1//EN" "http://www.w3.org/Graphics/SVG/1.1/DTD/svg11.dtd">
<svg version="1.1" id="Слой_1" xmlns="http://www.w3.org/2000/svg" xmlns:xlink="http://www.w3.org/1999/xlink" x="0px" y="0px"
	 width="482px" height="482px" viewBox="0 0 482 482" enable-background="new 0 0 482 482" xml:space="preserve">
<linearGradient id="SVGID_1_" gradientUnits="userSpaceOnUse" x1="241.1489" y1="533.5771" x2="241.1489" y2="-35.9508" gradientTransform="matrix(0.9994 0 0 -0.9994 0.2681 480.6473)">
	<stop  offset="0" style="stop-color:#565654"/>
	<stop  offset="1" style="stop-color:#D3D2D3"/>
</linearGradient>
<path fill="url(#SVGID_1_)" d="M433.079,49.194c-60.023-60.066-155.46-65.829-222.276-13.426
	c-66.82,52.407-83.962,146.465-39.93,219.075l-26.09,26.152l-5.669-5.677c-3.119-3.123-8.183-3.123-11.302,0L16.675,386.453
	c-21.858,21.857-21.858,57.294,0,79.152c21.858,21.858,57.298,21.858,79.156,0l111.134-111.134c3.119-3.123,3.119-8.183,0-11.306
	l-5.676-5.668l26.109-26.056c72.622,44.021,166.68,26.871,219.091-39.949c52.41-66.82,46.656-162.256-13.402-222.299H433.079z
	 M189.975,326.207l-33.91-33.906l23.794-23.841c0.945,1.253,1.991,2.443,2.975,3.677c0.863,1.086,1.726,2.167,2.616,3.236
	c3.197,3.861,6.594,7.645,10.185,11.244c3.588,3.596,7.363,6.93,11.193,10.162c1.078,0.901,2.174,1.764,3.271,2.646
	c1.23,0.973,2.397,2.022,3.662,2.955L189.975,326.207z M421.772,275.334c-59.301,59.247-155.396,59.216-214.663-0.07
	c-59.266-59.281-59.266-155.381,0-214.663s155.362-59.313,214.663-0.07c59.017,59.43,59.017,155.343,0,214.772V275.334z"/>
<linearGradient id="SVGID_2_" gradientUnits="userSpaceOnUse" x1="314.3252" y1="533.5771" x2="314.3252" y2="-35.9508" gradientTransform="matrix(0.9994 0 0 -0.9994 0.2681 480.6473)">
	<stop  offset="0" style="stop-color:#565654"/>
	<stop  offset="1" style="stop-color:#D3D2D3"/>
</linearGradient>
<path fill="url(#SVGID_2_)" d="M399.181,83.096c-46.828-46.789-122.714-46.766-169.514,0.051
	c-46.801,46.813-46.801,122.698,0,169.51c46.8,46.816,122.686,46.836,169.514,0.051C445.942,205.84,445.942,129.963,399.181,83.096z
	 M387.875,241.401c-40.594,40.589-106.402,40.585-146.988-0.004c-40.589-40.593-40.589-106.398,0-146.992
	c40.586-40.59,106.395-40.594,146.988-0.004C428.397,135.022,428.397,200.781,387.875,241.401z"/>
</svg>
