<svg xmlns="http://www.w3.org/2000/svg" viewBox="0 0 255 305" width="255" height="305">
	<path fill="#135b86" d="M0 0v264c0 12.71 10.307 23 23.021 23H108l19.5 18 19.5-18h84.979C244.693 287 255 276.71 255 264V0H0zm62.682 9.34c.518-.007.988.175 1.28.61l11.015 18.02c.283.461.637 1.135 1.027 1.206 4.037.708 5.277 4.035 6.906 7.01 1.081 1.968 1.25 3.813.319 5.628-1.736 1.806-1.417 3.54-.036 5.842l67.229 111.448c-.386.09.951.045 2.105-.977L87.16 48.754c5.915-1.027 11.617.602 17.178 2.726-2.244-2.36-4.326-6.721-1.807-8.78 1.362-1.114 2.66-2.404 3.614-3.858C109.3 34.029 116 31 120.416 33.176c7.463 3.676 10.803 11.294 4.959 16.074-3.152 6.869-7.012 6.02-7.791 9.1 1.558.708 12.465 9.17 13.209 12.71-3.258 6.799-4.886 17.422-2.053 23.335C130 55 165 40 189.268 64.12c3.258 3.54 6.197 7.328 11.687 7.576-1.63 2.302-3.435 3.967-5.312 5.596-1.346 1.204-2.02 2.655-2.198 4.496-.445 7.212-3.459 8.048-5.382 11.754-1.842 5.31-3.718 10.622-5.418 15.969-.425 1.31-.355 3.115-2.125 3.08-5.083-.098-7.98-5.268-6.907-9.205.85-3.01 0-5.594-.957-8.39-.991-2.763-1.31-5.808-1.982-8.995-4.498-1.558-12.964 8.108-6.483 16.252 4.18 5.984 7.97 17.03 8.608 21.527-19.799 7.22-38.109-10.292-42.856-23.687-.283 18.27 14.876 31.831 37.33 30.521.921 4.249 4.392 7.152 8.465 7.293.815-2.761.814-8.533.14-12.18-.318-1.628.533-2.442 2.02-2.832 4.923-1.239 11.298-.779 16.788-2.726 4.852-1.735 7.153-.71 10.164 5.168 3.622 7.044 9.412 11.694 14.45 16.713 1.878 1.876 2.834 4.072 2.975 6.799-.495 4.248.106 12.815.106 12.957-1.098 2.832-8.854-.141-10.094-3.186-.496-1.133 3.295-9.028-.672-13.277-2.479-2.62-4.888-5.276-7.297-7.932-2.55-2.868-4.39-3.965-6.976-3.965-4.038.904-12.342 1.554-15.973 6.338 3.577-.319 7.154-.567 10.695-.992 5.742-.553 11.815 2.12 12.149 7.824.319 8.108 6.8 25.21 7.225 30.344.495 1.983-1.949 2.586-5.278 12.004-2.479 2.797-9.173-6.02-8.217-8.074 3.896-5.099 4.994-8.249 4.002-12.073-.814-3.045-2.302-8.498-3.4-11.437-1.452-3.93-4.78-5.416-8.889-4-16.15 5.346-20.683-1.073-36.656 5.619l18 28c-.07-2.089 1.409-5.932-1.566-8.623.53-2.903 6.34-4.072 8.5-1.38 2.691 3.434 7.863 8.284 12.148 9.099 8.217 1.522 7.614 13.986 29.572 18.199-2.727 2.832-8.818 1.84-11.474.601 1.593 2.444 3.434 4.782 6.763 5.631-3.435 3.435-13.175-4.604-12.183 3.47 1.664-.957 4.038-1.133 6.021-.638 4.356 1.098 11.547 26.06-3.576 36.965 3.223.992 6.693-.744 9.951-.744 1.913 0 3.72 1.876 3.897 3.93 1.416 1.097 2.337 2.443 3.152 4.142-1.133.39-3.33.035-4.535-.779.46 1.38.355 4.71-.14 4.781-1.382.177-2.444-.603-3.825-1.453-1.948.992-8.36.604-10.201-1.025-4.817 1.168-9.598 2.762-14.627 2.762-2.727 0-6.304-.178-6.197-3.506.07-1.63.884-2.478 1.521-4.248-2.337-2.373-6.196-.072-10.8.388-6.27.602-8.82-.39-10.202-1.664 5.915-5.452 2.339-18.8-6.763-19.969 7.508 7.188 6.516 18.835-1.877 21.456 2.443.778 3.647 1.876 4.568 3.61 2.94 1.205 2.974 3.365 2.762 4.321-1.63-1.168-4.532-2.265-6.834-1.982-.177 1.027-.603 2.938-1.453 3.646-1.028-.212-2.337-1.133-2.832-1.842-2.692-2.089-19.374 1.842-20.4-.884-.638-2.55 3.824-4.709 7.933-5.63-10.554-3.894-19.733-23.804-36.02-27.19-7.548-1.57-17.78 1.805-17.78 11.648 0 4.85 3.898 8.568 8.077 8.568 3.86 0 6.017-2.566 5.807-5.383-3.332 4.262-7.065 3.05-8.924.78-3.984-4.866 1.252-9.864 5.736-10.586 6.371-.947 11.824.972 15.123 6.265 6.926 11.114-2.32 21.39-15.015 21.493-15.796.126-25.248-11.33-25.112-24.43.157-15.127 15.1-25.248 27.342-27.404-1.452-5.134-4.26-9.266-8.287-12.676-1.993-1.688-2.154-3.022-.92-5.205 2.275-4.027 4.217-7.331 4.568-11.473-5.666 5.099-13.566 9.738-24.51 13.066-3.47 1.594-5.31 4.78-5.736 8.391-.495 4.213-.602 8.462-.709 12.711 1.609 5.057 5.438 9.76 6.022 14.27 0 2.124-10.625 2.37-10.625.671-.106-7.718-5.207-10.692-4.676-15.79 1.417-7.86 1.765-15.761.461-23.723-.325-1.988.727-3.268 2.16-4.356 2.251-1.71 4.64-3.256 6.906-4.992 5.314-4.07 7.51-9.381 6.27-15.967-2.507-6.967-6.108-8.3-5.49-20.89.354-7.215-8.988-6.832-8.395.283.186 2.233 1.871 5.334 2.799 7.47 9.202 21.197-7.331 36.434-24.438 36.434 17.957-6.231-4.18-29.28-4.18-46.453 0-10.551 8.111-18.342 17.815-18.342 11.192 0 18.276 7.224 20.33 8.463 5.384-8.604 21.958-10.16 28.192-11.152-.46-4.603.176-8.747 3.01-12.287.177-.248.319-.672.212-.955-.885-2.196-1.84-4.356-3.045-6.48-5.1 5.806-6.34 13.454-6.34 17.384-18.876-.283-27.236-8.569-32.796-11.826 0-1.452 5.03-10.515 9.492-16.463-4.888 4.178-8.89 8.886-11.865 14.55-2.692-1.947-5.525-3.716-8.323-4.849 4.286-9.135 9.916-16.252 17.106-23.688-10.13 3.718-18.946 15.19-22.275 22.413-2.87-.32-7.155-.461-9.528.035 11.015-13.525 16.08-40.187 40.34-46.17-6.092 24.713 9.03 34.77 19.443 28.326C64 78 79.531 49.192 74.197 40.93c-1.877-2.196-2.832-4.248-2.549-7.045.107-.992-.178-2.16-.638-3.045L60.209 12.78c-1.074-1.704.917-3.421 2.473-3.441zm88.105 150.615c-14.16 5.752-40.029 6.347-47.441 5.606-1.523 3.788-3.931 7.754-7.508 11.578 3.577-2.302 6.303-5.241 8.853-8.428 2.87.319 7.156 1.488 11.547 1.807-2.62 5.558-6.518 11.082-11.511 15.72-2.373 2.302-5.298 4.396-4.215 8.108 1.22 4.183 8.996 12.145 11.83 17.35 2.833.566 7.58 1.593 11.086 2.974 1.983 4.284 8.712 9.666 16.822 6.87-16.327-.178-15.123-16.927-10.023-25.778-.567 8.214 3.4 15.049 8.43 15.828-7.544-6.869-6.8-22.485.53-31.053 1.063 13.915 5.278 21.209 11.3 22.873-7.97-7.364-12.751-24.324-.71-36.717.921 31.76 29.963 26.024 32.62 62.81 10.766 0 11.368-14.515 5.382-17.171-3.506-1.345-6.658-3.646-8.465-6.762-.743-1.345-1.522-3.683-2.125-5.064-3.187-9.454-12.218-8.851-12.005-11.117.212-.78 1.628-1.133 3.61-1.133l-18.007-28.3zM49.264 224.264c-.425 5.275 5.703 14.87 15.832 11.896-.319 1.948.249 7.259 2.515 11.26-17.92 4.072-25.643-10.693-18.347-23.156z" />
</svg>