<?xml version="1.0" encoding="utf-8"?>
<!-- Generator: Adobe Illustrator 16.0.0, SVG Export Plug-In . SVG Version: 6.00 Build 0)  -->
<!DOCTYPE svg PUBLIC "-//W3C//DTD SVG 1.1//EN" "http://www.w3.org/Graphics/SVG/1.1/DTD/svg11.dtd">
<svg version="1.1" id="Capa_1" xmlns="http://www.w3.org/2000/svg" xmlns:xlink="http://www.w3.org/1999/xlink" x="0px" y="0px"
	 width="512px" height="512px" viewBox="0 0 512 512" enable-background="new 0 0 512 512" xml:space="preserve">
<path fill="#005B98" d="M479.63,167.69h-44.783c-11.273-22.816-26.614-43.022-45.655-60.112c-3.084-2.767-7.825-2.512-10.593,0.572
	c-2.767,3.083-2.511,7.824,0.572,10.592c15.739,14.125,28.734,30.557,38.764,48.948h-62.13c-8.528-31.337-21.462-58.03-37.58-77.456
	c-3.434-4.139-6.981-7.911-10.631-11.309c15.633,4.546,30.652,11.144,44.635,19.718c3.533,2.167,8.15,1.059,10.314-2.473
	c2.166-3.531,1.058-8.149-2.473-10.314C328.825,66.697,292.838,56.57,256,56.57c-38.743,0-76.311,11.123-108.643,32.167
	c-30.139,19.616-54.306,46.853-70.179,78.953H32.37C14.521,167.69,0,182.207,0,200.05v111.9c0,17.843,14.521,32.358,32.37,32.358
	h44.809c15.873,32.101,40.04,59.338,70.179,78.952C179.689,444.307,217.257,455.43,256,455.43s76.311-11.123,108.643-32.167
	c30.141-19.616,54.308-46.853,70.181-78.952h44.809c17.85,0,32.37-14.518,32.37-32.358v-111.9
	C512,182.207,497.479,167.69,479.63,167.69L479.63,167.69z M340.232,167.69H263.5V72.156
	C295.428,77.089,324.527,113.212,340.232,167.69z M171.768,167.69c15.705-54.478,44.804-90.601,76.732-95.534v95.534H171.768z
	 M155.54,410.691c-25.777-16.778-46.836-39.575-61.471-66.383h62.127c8.53,31.338,21.462,58.029,37.58,77.457
	c3.449,4.155,7.013,7.941,10.677,11.351C187.224,428.113,170.753,420.593,155.54,410.691L155.54,410.691z M340.232,344.311
	c-15.705,54.479-44.806,90.602-76.732,95.533v-95.533H340.232z M248.5,439.844c-31.928-4.933-61.027-41.056-76.732-95.533H248.5
	V439.844z M497,311.95c0,9.571-7.792,17.358-17.37,17.358h-72.77c-4.144,0-7.5,3.356-7.5,7.5s3.356,7.5,7.5,7.5h11.069
	c-14.635,26.808-35.693,49.604-61.471,66.383c-15.213,9.901-31.683,17.422-48.913,22.425c3.664-3.408,7.229-7.194,10.677-11.351
	c16.118-19.428,29.052-46.119,37.58-77.457h16.057c4.142,0,7.5-3.356,7.5-7.5s-3.358-7.5-7.5-7.5H32.37
	c-9.578,0-17.37-7.787-17.37-17.358v-111.9c0-9.572,7.792-17.359,17.37-17.359h49.459c0.012,0,0.024,0.002,0.036,0.002
	c0.009,0,0.018-0.002,0.028-0.002h23.917c4.142,0,7.5-3.357,7.5-7.5s-3.358-7.5-7.5-7.5H94.069
	c14.635-26.807,35.695-49.604,61.471-66.382c15.213-9.902,31.683-17.422,48.913-22.425c-3.664,3.408-7.229,7.194-10.677,11.351
	c-16.118,19.426-29.05,46.119-37.58,77.456H140.81c-4.142,0-7.5,3.357-7.5,7.5s3.358,7.5,7.5,7.5h338.82
	c9.578,0,17.37,7.787,17.37,17.359V311.95z"/>
<path fill="#1E92D7" d="M139.992,208.094c-4.142,0.04-7.467,3.431-7.427,7.572l0.546,56.473l-41.89-60.658
	c-1.865-2.7-5.271-3.873-8.403-2.898c-3.134,0.977-5.268,3.878-5.268,7.16v79.421c0,4.143,3.358,7.5,7.5,7.5
	c4.142,0,7.5-3.357,7.5-7.5v-55.362l40.029,57.966c2.301,3.323,6.101,4.75,9.68,3.633c3.675-1.146,6.049-4.646,6.048-8.988
	l-0.743-76.888C147.523,211.38,144.094,208.043,139.992,208.094z"/>
<path fill="#1E92D7" d="M213.555,223.457c4.142,0,7.5-3.357,7.5-7.5s-3.358-7.5-7.5-7.5h-33.222c-4.142,0-7.5,3.357-7.5,7.5V294.8
	c0,4.144,3.358,7.5,7.5,7.5h33.222c4.142,0,7.5-3.356,7.5-7.5c0-4.143-3.358-7.5-7.5-7.5h-25.722v-24.422h23.272
	c4.142,0,7.5-3.356,7.5-7.5c0-4.143-3.358-7.5-7.5-7.5h-23.272v-24.421H213.555L213.555,223.457z"/>
<path fill="#1E92D7" d="M412.513,248.97c-10.172-3.753-19.61-7.848-22.069-8.928c-2.396-1.774-3.557-4.596-3.117-7.647
	c0.559-3.892,3.564-7.021,8.045-8.369c12.536-3.782,23.904,5.31,24.154,5.513c3.17,2.639,7.88,2.222,10.539-0.938
	c2.664-3.171,2.255-7.902-0.916-10.567c-0.709-0.597-17.62-14.539-38.104-8.37c-10.063,3.032-17.177,10.926-18.566,20.601
	c-1.295,9.021,2.612,17.694,10.195,22.639c0.332,0.217,0.679,0.406,1.041,0.567c0.458,0.204,11.343,5.05,23.608,9.573
	c8.595,3.171,12.966,8.112,11.994,13.558c-0.973,5.438-7.338,11.063-16.31,11.063c-8.588,0-16.876-3.488-22.171-9.331
	c-2.782-3.068-7.523-3.303-10.594-0.521c-3.07,2.783-3.303,7.524-0.521,10.596c8.093,8.929,20.534,14.259,33.286,14.259
	c15.331,0,28.689-10.071,31.074-23.427C435.889,269.117,431.171,255.852,412.513,248.97L412.513,248.97z"/>
<path fill="#1E92D7" d="M341.385,208.384c-4.057-0.808-8.011,1.829-8.818,5.892l-11.109,55.818l-17.47-56.708
	c-1.221-3.959-5.417-6.179-9.376-4.96c-2.732,0.842-4.637,3.105-5.151,5.728l-17.315,55.944l-11.068-55.958
	c-0.803-4.063-4.748-6.707-8.813-5.902c-4.063,0.804-6.706,4.749-5.902,8.812l15.502,78.375c0.072,0.359,0.168,0.712,0.291,1.058
	c1.316,3.705,4.832,6.184,8.76,6.184h0.064c3.955-0.027,7.465-2.563,8.735-6.305c0.021-0.065,0.043-0.131,0.063-0.195l17.049-55.077
	l16.972,55.091c0.031,0.104,0.064,0.202,0.101,0.303c1.315,3.705,4.83,6.186,8.76,6.186h0.063c3.954-0.025,7.466-2.563,8.738-6.307
	c0.104-0.311,0.189-0.627,0.255-0.947l15.565-78.206C348.085,213.141,345.448,209.192,341.385,208.384L341.385,208.384z"/>
</svg>
