<?xml version="1.0" encoding="utf-8"?>
<!-- Generator: Adobe Illustrator 16.0.0, SVG Export Plug-In . SVG Version: 6.00 Build 0)  -->
<!DOCTYPE svg PUBLIC "-//W3C//DTD SVG 1.1//EN" "http://www.w3.org/Graphics/SVG/1.1/DTD/svg11.dtd">
<svg version="1.1" id="Слой_1" xmlns="http://www.w3.org/2000/svg" xmlns:xlink="http://www.w3.org/1999/xlink" x="0px" y="0px"
	 width="595.281px" height="841.891px" viewBox="0 0 595.281 841.891" enable-background="new 0 0 595.281 841.891"
	 xml:space="preserve">
<path fill="#005B95" d="M372.269,188.268c-6.428,0-11.637,5.209-11.637,11.641v169.303c0,6.426,5.205,11.636,11.637,11.636
	c6.426,0,11.635-5.209,11.635-11.636V199.908C383.904,193.481,378.695,188.268,372.269,188.268z"/>
<path fill="#005B95" d="M319.904,188.268c-6.426,0-11.641,5.209-11.641,11.641v169.303c0,6.426,5.215,11.636,11.641,11.636
	s11.635-5.209,11.635-11.636V199.908C331.539,193.481,326.33,188.268,319.904,188.268z"/>
<circle fill="#005B95" cx="463.273" cy="391.279" r="11.627"/>
<path fill="#00C2FC" d="M372.046,509.442c12.689-12.689,19.033-29.407,19.033-46.111s-6.344-33.422-19.037-46.111
	c-25.348-25.351-66.871-25.356-92.223,0L149.86,547.175c-4.546,4.546-4.546,11.912,0,16.454c4.542,4.546,11.908,4.546,16.455,0
	c43.318-43.318,86.636-86.637,129.958-129.959c16.318-16.318,42.996-16.318,59.318,0c8.145,8.147,12.217,18.897,12.217,29.661
	c0,10.76-4.072,21.514-12.217,29.657L153.267,695.313H26.691V439.438L201.63,279.665c-0.164-0.549-0.579-20.481-0.313-30.809
	L8.084,425.032c-2.834,2.121-4.668,5.504-4.668,9.314v272.603c0,6.426,5.213,11.636,11.635,11.636h143.034
	c1.948,0,3.783-0.478,5.396-1.326c0.531-0.282,1.008-0.582,1.494-0.932c0.509-0.377,0.981-0.785,1.421-1.239L372.046,509.442z"/>
<path fill="#005B95" d="M528.636,143.487c-12.453-12.453-29.639-20.183-48.549-20.183H271.436c-18.916,0-36.102,7.73-48.555,20.183
	s-20.183,29.639-20.183,48.55v87.808v208.829c10.891-10.134,15.748-15.271,23.271-21.382V192.037
	c0-12.489,5.118-23.853,13.366-32.096c8.243-8.248,19.611-13.366,32.101-13.366h180.203v198.197h0.01
	c0,6.422,5.203,11.626,11.625,11.626s11.627-5.205,11.627-11.626h0.01V146.576h5.178c12.488,0,23.852,5.118,32.096,13.366
	c8.246,8.243,13.365,19.606,13.365,32.096v398.479c0,12.493-5.119,23.856-13.365,32.1c-8.244,8.248-19.607,13.361-32.096,13.361
	h-5.178V437.785h-0.01c0-6.422-5.205-11.627-11.627-11.627s-11.625,5.205-11.625,11.627h-0.01v198.191H271.436
	c-2.826,0-5.698-0.361-8.546-1c-0.256,0.28-6.937-5.29-7.224-4.985c-5.357,5.683-12.795,10.88-18.52,17.037
	c1.222,0.557,8.789,6.858,10.042,7.352c7.712,3.038,16.019,4.873,24.248,4.873h208.652c18.91,0,36.096-7.73,48.549-20.184
	s20.184-29.639,20.184-48.554V192.037C548.82,173.126,541.089,155.936,528.636,143.487z"/>
<circle fill="#00C2FC" cx="125.336" cy="588.153" r="11.627"/>
</svg>
