<?xml version="1.0" encoding="utf-8"?>
<!-- Generator: Adobe Illustrator 16.0.0, SVG Export Plug-In . SVG Version: 6.00 Build 0)  -->
<!DOCTYPE svg PUBLIC "-//W3C//DTD SVG 1.1//EN" "http://www.w3.org/Graphics/SVG/1.1/DTD/svg11.dtd">
<svg version="1.1" id="Capa_1" xmlns="http://www.w3.org/2000/svg" xmlns:xlink="http://www.w3.org/1999/xlink" x="0px" y="0px"
	 width="512px" height="512px" viewBox="0 0 512 512" enable-background="new 0 0 512 512" xml:space="preserve">
<path fill="#005B92" d="M501.121,86.195H73.166c-6.521,0-11.807,5.285-11.807,11.806s5.286,11.808,11.807,11.808h416.147V394.94
	H24.686v-37.543l72.77-72.771l76.488,76.488c0.274,0.342,0.565,0.677,0.883,0.994c2.304,2.305,5.327,3.458,8.348,3.458
	c3.021,0,6.043-1.151,8.348-3.458L341.5,212.129l88.277,88.276c4.609,4.609,12.086,4.609,16.693,0c4.611-4.61,4.611-12.086,0-16.695
	l-96.623-96.625c-2.213-2.215-5.217-3.458-8.348-3.458s-6.137,1.244-8.348,3.458L183.229,337.009l-77.426-77.426
	c-4.611-4.61-12.087-4.61-16.696,0l-64.422,64.42V153.369c0-6.52-5.286-11.807-11.807-11.807S1.072,146.85,1.072,153.369v199.135
	c0,0.002,0,0.005,0,0.008v54.237c0,6.521,5.286,11.808,11.807,11.808h488.243c6.521,0,11.807-5.286,11.807-11.808V98.001
	C512.928,91.48,507.641,86.195,501.121,86.195z"/>
<path fill="#1E92D7" d="M252.8,189.792c0-32.192-26.191-58.382-58.383-58.382c-32.192,0-58.382,26.189-58.382,58.382
	c0,32.193,26.19,58.384,58.382,58.384C226.609,248.176,252.8,221.984,252.8,189.792z M159.647,189.792
	c0-19.171,15.597-34.769,34.77-34.769c19.172,0,34.771,15.598,34.771,34.769c0,19.173-15.6,34.771-34.771,34.771
	C175.245,224.563,159.647,208.965,159.647,189.792z"/>
</svg>
