<?xml version="1.0" encoding="utf-8"?>
<!-- Generator: Adobe Illustrator 24.1.2, SVG Export Plug-In . SVG Version: 6.00 Build 0)  -->
<svg version="1.1" id="Capa_1" xmlns="http://www.w3.org/2000/svg" xmlns:xlink="http://www.w3.org/1999/xlink" x="0px" y="0px"
	 viewBox="0 0 512 512" style="enable-background:new 0 0 512 512;" xml:space="preserve">
<style type="text/css">
	.st0{fill:#005B92;}
	.st1{fill:#1E92D7;}
</style>
<g>
	<g>
		<path class="st0" d="M466.5,95.8c-11-1.1-44.6-4.3-64-9C346,73.2,295.9,47.5,264.9,16.3c-2.2-2.2-5.5-3.5-8.9-3.5
			s-6.7,1.3-8.9,3.5c-31,31.2-81.2,56.9-137.6,70.6c-19.4,4.7-53,7.9-64,9c-6.1,0.6-10.6,5.1-10.3,10.3c0.1,0.9,0.2,1.7,0.6,2.5
			c1.2,6.1,5.1,43.8,5.2,87.6c0,0,0,0.1,0,0.1c0.5,26.7-0.5,55.4-1.3,80.8c-0.7,20.9-1.3,39-1,51.9c-1,42.1,4.2,95.2,54.4,133
			c46.8,35.2,104.6,54.5,162.9,54.5c58,0,114.8-20.6,156-56.4c41-35.7,62.8-82.3,61.3-131.2c0.3-12.9-0.3-30.9-1-51.8
			c-0.8-25.4-1.8-54.1-1.3-80.8c0,0,0-0.1,0-0.1c0.1-43.9,4-81.5,5.2-87.6c0.3-0.8,0.5-1.6,0.6-2.5C477.1,101,472.6,96.4,466.5,95.8
			z M450.4,132c-1,12-2.6,36.2-2.6,64.2c-0.5,27.1,0.5,56,1.3,81.6c0.7,20.8,1.3,38.7,0.9,51.1c0,0.2,0,0.3,0,0.5
			c1.4,43.6-18,85.2-54.7,117.1C358.5,478.6,307.7,497,256,497c-52.6,0-104.9-17.6-147.4-49.6c-34.1-25.7-48.1-61-46.6-118.1
			c0-0.1,0-0.3,0-0.4c-0.3-12.4,0.3-30.3,0.9-51.1c0.8-25.6,1.8-54.5,1.3-81.6c-0.1-28-1.7-52.3-2.6-64.2
			c-0.5-6.5-1.1-12.7-1.7-17.7c18.4-1.9,40.4-4.7,56-8.4c55.7-13.5,106-38.1,140.1-68.4c34.1,30.3,84.4,54.9,140.1,68.4
			c15.6,3.8,37.6,6.5,56,8.4C451.5,119.2,450.9,125.4,450.4,132z"/>
	</g>
</g>
<g>
	<g>
		<path class="st0" d="M426.8,330c0-0.2-0.4-34.3-1-51.7c-0.8-25.7-1.8-54.8-1.3-82.2c0,0,0-0.1,0-0.1c0-18.4,0.7-37.2,2-55.9
			c0.3-5-3.8-9.4-9.6-10.3c-10.8-1.6-19.9-3.3-27.2-5.1c-48-11.6-91.6-30.5-126.3-54.7c-4.3-3-10.5-3-14.8,0
			c-34.7,24.2-78.3,43.1-126.3,54.7c-7.3,1.8-16.5,3.5-27.2,5.1c-5.8,0.9-9.9,5.3-9.6,10.3c1.3,18.7,1.9,37.5,2,55.9
			c0,0,0,0.1,0,0.1c0.5,27.4-0.5,56.5-1.3,82.2c-0.3,8.2-0.9,51.4-0.9,51.4c-1.3,50.7,10.3,81.5,38.8,103
			c38.2,28.7,85.1,44.6,132,44.6c45.5,0,90.2-16.2,122.7-44.5C411,404.7,428.1,368.2,426.8,330z M362,419.1
			c-28.2,24.5-66.8,38.5-106,38.5c-41.2,0-82.6-14.1-116.5-39.6c-22.9-17.2-32.2-43.5-31-87.8c0-0.1,0.7-43.2,0.9-51.3
			c0.8-25.9,1.8-55.2,1.3-83c0-15.9-0.5-32.1-1.5-48.3c7.3-1.2,13.9-2.6,19.5-3.9c47.7-11.5,91.5-29.9,127.3-53.4
			c35.8,23.5,79.6,41.9,127.3,53.4c5.6,1.4,12.1,2.7,19.5,3.9c-0.9,16.2-1.4,32.4-1.5,48.3c-0.5,27.8,0.5,57.1,1.3,83
			c0.4,11.4,0.9,51.5,1,51.6C404.6,363.4,389.9,394.8,362,419.1z"/>
	</g>
</g>
<g>
	<path class="st1" d="M248.2,393.8c-3.5,0-6.8-1.6-9-4.4c-1.7-2.1-41.1-52.7-52.3-103c-1.4-6.2,2.5-12.3,8.7-13.7
		c6.2-1.4,12.3,2.5,13.7,8.7c6.5,29.5,24.8,60.2,36.7,78.1L314.9,211c2.7-5.8,9.5-8.3,15.3-5.6c5.8,2.7,8.3,9.5,5.6,15.3
		l-77.1,166.4c-1.7,3.6-5.1,6.1-9.1,6.6C249.1,393.7,248.7,393.8,248.2,393.8z"/>
</g>
<circle class="st1" cx="339.5" cy="183.8" r="11.5"/>
</svg>
