<?xml version="1.0" encoding="utf-8"?>
<!-- Generator: Adobe Illustrator 16.0.0, SVG Export Plug-In . SVG Version: 6.00 Build 0)  -->
<!DOCTYPE svg PUBLIC "-//W3C//DTD SVG 1.1//EN" "http://www.w3.org/Graphics/SVG/1.1/DTD/svg11.dtd">
<svg version="1.1" id="Layer_1" xmlns="http://www.w3.org/2000/svg" xmlns:xlink="http://www.w3.org/1999/xlink" x="0px" y="0px"
	 width="595.281px" height="841.891px" viewBox="0 0 595.281 841.891" enable-background="new 0 0 595.281 841.891"
	 xml:space="preserve">
<path fill="#1E92D7" d="M316.242,569.766v49.606c0,6.856,5.557,12.401,12.401,12.401c6.846,0,12.402-5.545,12.402-12.401v-49.606
	h12.4c6.846,0,12.401-5.545,12.401-12.401c0-6.857-5.557-12.401-12.401-12.401H153.967c-5.923-35.148-36.558-62.009-73.356-62.009
	c-41.025,0-74.41,33.374-74.41,74.41c0,41.037,33.374,74.422,74.41,74.422c36.8,0,67.434-26.869,73.356-62.021H316.242z
	 M80.611,606.982c-27.357,0-49.606-22.263-49.606-49.619s22.25-49.606,49.606-49.606s49.607,22.247,49.607,49.606
	C130.218,584.722,107.968,606.982,80.611,606.982z"/>
<path fill="#005B92" d="M576.677,396.142h-12.399V292.154c0-100.987-69.771-168.85-173.625-168.85h-49.605
	c-103.853,0-173.624,67.85-173.624,168.85v103.987h-12.401c-6.846,0-12.402,5.544-12.402,12.402v37.205
	c0,6.858,5.556,12.402,12.402,12.402s12.401-5.544,12.401-12.402v-24.803h396.854v168.874c0,58.288-40.9,103.964-93.103,103.964
	h-204.54c-36.262,0-60.333-20.563-74.136-37.826c-4.292-5.357-12.092-6.228-17.438-1.935c-5.346,4.266-6.213,12.065-1.935,17.436
	c24.68,30.831,57.01,47.128,93.508,47.128h204.54c66.115,0,117.904-56.563,117.904-128.767V408.543
	C589.08,401.686,583.523,396.142,576.677,396.142z M192.226,396.142V292.154c0-87.494,58.413-144.046,148.82-144.046h49.605
	c90.409,0,148.819,56.54,148.819,144.046v103.987L192.226,396.142L192.226,396.142z"/>
<path fill="#005B92" d="M384.414,552.167c-3.818,2.206-6.162,6.312-6.162,10.715v56.49c0,6.846-5.568,12.401-12.402,12.401
	c-6.846,0-12.401,5.544-12.401,12.4c0,6.858,5.557,12.402,12.401,12.402c20.515,0,37.205-16.692,37.205-37.205v-49.867
	c15.451-11.646,24.804-29.962,24.804-49.347c0-34.19-27.816-62.008-62.009-62.008c-34.191,0-62.008,27.816-62.008,62.008
	c0,6.856,5.556,12.401,12.4,12.401s12.401-5.545,12.401-12.401c0-20.514,16.691-37.205,37.205-37.205
	c20.515,0,37.205,16.691,37.205,37.205C403.054,533.403,396.083,545.37,384.414,552.167z"/>
</svg>
